<?xml version="1.0" encoding="UTF-8"?>
<svg width="100px" height="92px" viewBox="0 0 100 92" version="1.1" xmlns="http://www.w3.org/2000/svg" xmlns:xlink="http://www.w3.org/1999/xlink">
    <!-- Generator: Sketch 51.3 (57544) - http://www.bohemiancoding.com/sketch -->
    <title>icons8-login_rounded_right</title>
    <desc>Created with Sketch.</desc>
    <defs></defs>
    <g id="Everything" stroke="none" stroke-width="1" fill="none" fill-rule="evenodd">
        <g id="Login-interface" transform="translate(-670.000000, -268.000000)" fill="#FFFFFF" fill-rule="nonzero">
            <g id="icons8-login_rounded_right" transform="translate(670.000000, 268.000000)">
                <path d="M53.8461538,0 C33.0576923,0 15.4481973,13.7755625 9.69050462,32.6432292 C11.9289662,32.5358958 14.6956731,32.421495 17.96875,32.2988279 C23.5149038,17.9161613 37.4884615,7.66666667 53.8461538,7.66666667 C75.0538462,7.66666667 92.3076923,24.863 92.3076923,46 C92.3076923,67.137 75.0538462,84.3333333 53.8461538,84.3333333 C37.4269231,84.3333333 23.4125,74.0034583 17.9086538,59.5364583 C14.6355769,59.3907917 11.8763823,59.2586605 9.63792077,59.1321605 C15.3225362,78.1148272 32.9730769,92 53.8461538,92 C79.2961538,92 100,71.3651667 100,46 C100,20.6348333 79.2961538,0 53.8461538,0 Z M40.5198308,30.6666667 C40.1717538,30.6498958 39.8155038,30.7281798 39.4981962,30.8987631 C38.8597346,31.2399298 38.4615385,31.907409 38.4615385,32.6357423 L38.4615385,39.2916667 C38.4615385,39.2916667 2.42776442,40.4218407 1.72776442,40.9163407 C0.696995192,41.6485073 0,44.0145135 0,45.9925135 C0,47.9666802 0.696995192,50.0558468 1.72776442,50.7841802 C2.42391827,51.2825135 38.4615385,52.7083333 38.4615385,52.7083333 L38.4615385,59.3717438 C38.4615385,60.0962438 38.8635808,60.7562365 39.4981962,61.1012365 C40.1366577,61.4424032 40.9114192,61.4064082 41.5114192,61.0039043 C49.2844962,55.756071 56.9985577,47.5692095 57.2716346,47.2203762 C57.55625,46.8600428 57.6923077,46.4293333 57.6923077,46 C57.6923077,45.5668333 57.5485577,45.1322905 57.2716346,44.7796238 C56.9947115,44.4346238 49.2844962,36.2439252 41.5114192,30.9960938 C41.2094962,30.7929271 40.8679077,30.6834375 40.5198308,30.6666667 Z" id="Shape"></path>
            </g>
        </g>
    </g>
</svg>