<?xml version="1.0" encoding="UTF-8"?>
<svg width="103px" height="200px" viewBox="0 0 103 200" version="1.1" xmlns="http://www.w3.org/2000/svg" xmlns:xlink="http://www.w3.org/1999/xlink">
    <!-- Generator: Sketch 51.3 (57544) - http://www.bohemiancoding.com/sketch -->
    <title>Logo 2  Copy</title>
    <desc>Created with Sketch.</desc>
    <defs>
        <polygon id="path-1" points="0.000214858002 0.147620569 91.300157 0.147620569 91.300157 198.602931 0.000214858002 198.602931"></polygon>
    </defs>
    <g id="Everything" stroke="none" stroke-width="1" fill="none" fill-rule="evenodd">
        <g id="A" transform="translate(-669.000000, -312.000000)">
            <g id="Logo-2--Copy" transform="translate(669.000000, 312.000000)">
                <path d="M99.9135186,85.1875694 C98.7798422,81.8151243 97.2480519,78.6450867 95.4637439,75.6203869 L88.5934373,88.1521557 C90.1965088,90.6480086 91.6365433,93.2420216 92.8308846,95.9722412 C93.3245457,97.0999406 93.7492005,98.2398149 94.1329063,99.3857767 L100.623299,87.5456939 C100.40718,86.7573696 100.177411,85.9698063 99.9135186,85.1875694" id="Fill-1" fill="#FFFFFF"></path>
                <path d="M102.169193,97.0150208 L96.0814648,108.120805 C96.9201578,115.137348 96.2073446,122.318252 94.7149866,129.361427 C94.0635966,132.435587 96.6562653,127.493342 96.8170274,127.14864 C98.3192435,123.932186 99.6091321,120.474516 100.34697,116.991736 C101.742264,110.40588 102.584748,103.670882 102.169193,97.0150208" id="Fill-3" fill="#FFFFFF"></path>
                <g id="Group-7" transform="translate(0.000000, 0.613310)">
                    <mask id="mask-2" fill="white">
                        <use xlink:href="#path-1"></use>
                    </mask>
                    <g id="Clip-6"></g>
                    <path d="M80.3899424,86.6931471 L90.6112296,67.8205421 C88.5137387,65.0370573 86.2714102,62.3547764 84.0063323,59.7280433 C70.0374672,43.53011 47.2721832,23.8699417 49.5911012,0.239997565 C49.6305335,-0.156447366 49.0170591,0.781019343 48.3406448,1.92774201 C46.8748277,6.49789222 46.0846666,13.8119588 49.9922483,23.5678522 C49.9922483,23.5678522 45.4461679,16.8549209 46.4547229,5.46226544 C45.2929889,8.23814089 44.0758982,11.2369691 43.7816731,14.2365582 C41.5484444,36.9883882 62.3201262,56.0489431 75.9598838,71.5856275 C76.1623531,71.8169505 76.3648224,72.0497953 76.56805,72.2811183 L73.3194415,77.8655892 C73.1594377,77.6784002 72.9994338,77.4904503 72.83943,77.3040223 C58.8364409,61.0376052 36.3486991,41.6795264 38.6888499,17.952944 C38.708566,17.7528192 38.5599368,17.8973961 38.3241018,18.2306838 C36.4442464,22.4097156 34.4347196,30.5676544 39.0892386,42.1885891 C39.0892386,42.1885891 34.2201174,34.9970324 35.6798679,22.8685568 C34.4809767,25.7296565 33.1850215,28.8395806 32.8786635,31.9495046 C30.6279935,54.7698184 51.104692,73.5571992 64.7838818,89.1494316 C71.2591078,96.5296991 77.860972,104.167161 81.8201188,113.268654 C85.5881711,121.93109 86.10079,131.140635 84.8814243,140.29235 C83.9494589,144.79706 81.8049526,151.841757 77.0351702,157.094462 C77.0723275,156.975757 77.1102431,156.857812 77.1458838,156.738346 C77.7115845,155.11452 78.1908377,153.4633 78.5411778,151.804471 C80.7918478,141.162854 81.4697787,130.192515 77.8556638,119.770808 C74.591889,110.359616 68.3509814,102.468764 61.9364203,95.0169688 C47.9341896,78.7505517 25.4456894,59.3924729 27.7858402,35.6658905 C27.8184476,35.3371684 27.401376,35.9291726 26.8720742,36.792829 C25.2098544,41.2602535 23.9798723,48.9296748 28.181679,59.4221492 C28.181679,59.4221492 23.4892445,52.5045275 24.6904107,40.7899983 C23.5157854,43.5932673 22.275187,46.6270983 21.9764121,49.6624511 C19.7257421,72.4827649 40.2016823,91.2701456 53.8808721,106.861617 C60.3568565,114.243407 66.9587206,121.880869 70.9178675,130.982362 C74.472834,139.15628 75.1249823,147.816433 74.1626844,156.456041 C73.454421,160.661705 71.4479275,168.869866 66.1101695,174.83328 C66.7342602,173.086944 67.2612871,171.305605 67.6389264,169.517418 C69.8888381,158.875801 70.566769,147.905462 66.9534124,137.484515 C63.6903959,128.071801 57.4479717,120.18171 51.0341689,112.729915 C37.0311799,96.4627372 14.543438,77.1046584 16.8835888,53.378837 C16.9139213,53.0698991 16.5484149,53.5713525 16.0646119,54.3497847 C14.2651375,58.6726324 12.6082258,66.6251198 17.0671003,77.758298 C17.0671003,77.758298 12.3344752,70.7759972 13.5947897,58.9640688 C12.4808294,61.6379796 11.3562528,64.5059277 11.0734024,67.3753976 C8.82349074,90.1957114 29.2986726,108.982331 42.9786208,124.574564 C43.0135031,124.614132 43.0483855,124.654461 43.0832678,124.694791 L39.7254623,129.976411 C25.6989656,113.805871 3.6631777,94.5923694 5.98057911,71.0917835 C6.01546147,70.7409944 5.53848323,71.437246 4.95837456,72.3960188 C3.54033115,76.9806267 2.84040919,84.21023 6.6820177,93.8025232 C6.6820177,93.8025232 2.113188,87.0576329 3.15207542,75.613995 C3.10126852,75.713677 3.05956136,75.7981403 3.04212018,75.8407524 C1.82351283,78.746747 0.483575551,81.9183065 0.171151015,85.0883441 C-2.07951895,107.907897 18.3964212,126.696039 32.0756111,142.28751 C38.5515954,149.668539 44.9752562,157.386659 49.1126064,166.407494 C53.5805806,176.153495 53.9362289,194.63346 46.6897996,196.809722 C43.9333355,197.637614 41.3368753,196.478717 39.9817718,194.414312 C39.9438562,194.334414 39.9051823,194.253755 39.8710583,194.172336 C40.446617,194.787168 41.1859712,195.302318 42.0989789,195.63941 C45.7214352,196.987019 48.710701,193.983625 48.6780936,190.384422 C48.6667189,189.147149 48.3641525,188.151851 47.8727663,187.371136 C46.214338,191.491576 43.6148445,190.811304 43.6148445,190.811304 C45.8184991,190.054939 46.7770055,188.324583 47.1190042,186.463346 C43.6633765,183.300918 35.8080226,186.248003 37.7788755,192.81103 C39.6117156,198.921305 45.6865528,199.986608 49.6972649,196.995389 C57.0073924,191.54332 58.5824064,180.736581 58.5824064,171.714986 C58.5824064,167.193535 58.0986034,163.865985 58.0356635,163.378228 C57.6276916,160.625181 56.9854014,157.892678 56.0504027,155.196701 C53.8983133,148.990549 50.4479938,143.447169 46.5100797,138.253055 L49.9732905,132.806313 C53.9134795,137.718121 57.4987786,142.909951 60.0148578,148.694547 C64.3865263,158.743399 64.3751517,169.526549 62.3625917,180.103487 L61.5678807,183.020895 C61.5678807,183.020895 61.687694,182.908277 61.9045712,182.692173 C61.9432451,183.324507 62.6242093,182.322361 63.2210008,181.302713 C65.8849508,178.37313 71.2166424,171.801732 75.0749337,162.519898 C78.782321,158.249555 85.6920598,148.992071 88.9027527,136.289093 C89.1037054,135.558599 89.2887335,134.825823 89.4441875,134.091525 C91.6940992,123.449908 92.3720301,112.479569 88.7586735,102.058622 C86.822703,96.475673 83.8357121,91.431463 80.3899424,86.6931471" id="Fill-5" fill="#FFFFFF" mask="url(#mask-2)"></path>
                </g>
            </g>
        </g>
    </g>
</svg>