<?xml version="1.0" encoding="UTF-8"?>
<svg width="31px" height="60px" viewBox="0 0 31 60" version="1.1" xmlns="http://www.w3.org/2000/svg" xmlns:xlink="http://www.w3.org/1999/xlink">
    <!-- Generator: Sketch 51.3 (57544) - http://www.bohemiancoding.com/sketch -->
    <title>Logo 2  Copy</title>
    <desc>Created with Sketch.</desc>
    <defs>
        <polygon id="path-1" points="6.46660007e-05 0.0442861708 27.478688 0.0442861708 27.478688 59.5808793 6.46660007e-05 59.5808793"></polygon>
    </defs>
    <g id="Everything" stroke="none" stroke-width="1" fill="none" fill-rule="evenodd">
        <g id="وحدة-الموظفين-3" transform="translate(-1390.000000, -16.000000)">
            <g id="Logo-2--Copy" transform="translate(1390.000000, 16.000000)">
                <path d="M30.071059,25.5562708 C29.7298554,24.5445373 29.2688312,23.593526 28.7318064,22.6861161 L26.6640442,26.4456467 C27.1465221,27.1944026 27.5799305,27.9726065 27.9393925,28.7916724 C28.0879701,29.1299822 28.2157788,29.4719445 28.3312631,29.815733 L30.2846821,26.2637082 C30.2196366,26.0272109 30.150483,25.7909419 30.071059,25.5562708" id="Fill-1" fill="#FFFFFF"></path>
                <path d="M30.7499514,29.1045062 L28.9177224,32.4362416 C29.1701446,34.5412044 28.9556086,36.6954755 28.5064523,38.8084281 C28.3104029,39.7306762 29.0907206,38.2480026 29.1391053,38.1445921 C29.5912286,37.1796558 29.9794475,36.1423549 30.2015152,35.0975209 C30.621458,33.1217641 30.8750214,31.1012647 30.7499514,29.1045062" id="Fill-3" fill="#FFFFFF"></path>
                <g id="Group-7" transform="translate(0.000000, 0.183993)">
                    <mask id="mask-2" fill="white">
                        <use xlink:href="#path-1"></use>
                    </mask>
                    <g id="Clip-6"></g>
                    <path d="M24.1950312,26.0079441 L27.271341,20.3461626 C26.6400573,19.5111172 25.9651817,18.7064329 25.2834592,17.918413 C21.0792377,13.059033 14.2275503,7.16098251 14.9254771,0.0719992695 C14.937345,-0.0469342099 14.7527071,0.234305803 14.5491261,0.578322604 C14.1079579,1.94936767 13.8701424,4.14358764 15.0462106,7.07035566 C15.0462106,7.07035566 13.6779729,5.05647628 13.9815185,1.63867963 C13.6318705,2.47144227 13.2655616,3.37109072 13.1770084,4.27096745 C12.5048716,11.0965165 18.7565428,16.8146829 22.8617126,21.4756883 C22.92265,21.5450851 22.9835873,21.6149386 23.0447529,21.6843355 L22.0670164,23.3596768 C22.0188599,23.3035201 21.9707034,23.2471351 21.9225469,23.1912067 C17.708055,18.3112816 10.9398997,12.5038579 11.644217,5.38588321 C11.6501509,5.32584577 11.6054179,5.36921883 11.5344384,5.46920513 C10.9686567,6.72291467 10.3638477,9.17029631 11.7647223,12.6565767 C11.7647223,12.6565767 10.2992586,10.4991097 10.738601,6.86056705 C10.3777697,7.71889695 9.98772492,8.65187417 9.89552007,9.58485139 C9.21813396,16.4309455 15.3810238,22.0671597 19.4980615,26.7448295 C21.446916,28.9589097 23.4338848,31.2501484 24.6254727,33.9805963 C25.7595466,36.579327 25.91383,39.3421906 25.5468364,42.0877049 C25.266342,43.4391179 24.6209081,45.5525271 23.1853425,47.1283386 C23.1965258,47.092727 23.2079372,47.0573437 23.218664,47.0215039 C23.3889235,46.534356 23.5331647,46.0389901 23.6386069,45.5413414 C24.315993,42.3488563 24.5200305,39.0577546 23.4322872,35.9312423 C22.449986,33.1078848 20.5716546,30.7406291 18.6410585,28.5050906 C14.4267949,23.6251655 7.65841137,17.8177419 8.3627286,10.6997672 C8.37254248,10.6011505 8.24701608,10.7787518 8.08771166,11.0378487 C7.5874319,12.3780761 7.21724313,14.6789024 8.48186456,17.8266448 C8.48186456,17.8266448 7.06957844,15.7513583 7.43109447,12.2369995 C7.07756648,13.0779802 6.7041825,13.9881295 6.61425995,14.8987353 C5.93687384,21.7448295 12.0995354,27.3810437 16.2165732,32.0584851 C18.1656558,34.273022 20.1526246,36.5642606 21.3442125,39.2947085 C22.4141539,41.746884 22.6104316,44.3449299 22.3208079,46.9368123 C22.1076413,48.1985116 21.5037452,50.6609597 19.8972355,52.449984 C20.0850686,51.9260832 20.2436883,51.3916815 20.3573468,50.8552253 C21.0345047,47.6627403 21.2385421,44.3716386 20.151027,41.2453545 C19.1689541,38.4215404 17.2901662,36.0545131 15.3597984,33.8189746 C11.1453066,28.9388212 4.37715125,23.1313975 5.08146847,16.0136511 C5.09059767,15.9209697 4.98059089,16.0714057 4.83498027,16.3049354 C4.29339091,17.6017897 3.79470875,19.987536 5.13670009,23.3274894 C5.13670009,23.3274894 3.71231778,21.2327992 4.09163575,17.6892207 C3.75636614,18.4913939 3.41790132,19.3517783 3.33277159,20.2126193 C2.65561372,27.0587134 8.81804709,32.6946994 12.935313,37.3723691 C12.9458116,37.3842396 12.9563102,37.3963384 12.9668088,37.4084372 L11.9562071,38.9929233 C7.73464013,34.1417614 1.10250979,28.3777108 1.79998012,21.327535 C1.81047869,21.2222983 1.66692214,21.4311738 1.49232632,21.7188056 C1.06553656,23.094188 0.854880437,25.263069 2.01109271,28.140757 C2.01109271,28.140757 0.63600804,26.1172899 0.948682893,22.6841985 C0.933391495,22.7141031 0.920838855,22.7394421 0.915589569,22.7522257 C0.548824248,23.6240241 0.145542156,24.5754919 0.0515114704,25.5265032 C-0.625874636,32.3723691 5.53678697,38.0088116 9.65382469,42.686253 C11.6029074,44.9005616 13.5362422,47.2159978 14.7814641,49.9222481 C16.1261942,52.8460485 16.2332339,58.3900379 14.0522698,59.0429165 C13.2226544,59.2912843 12.4411955,58.943615 12.0333488,58.3242935 C12.0219373,58.3003242 12.0102976,58.2761266 12.0000272,58.2517007 C12.1732537,58.4361503 12.3957777,58.5906953 12.6705665,58.691823 C13.7608203,59.0961056 14.6605023,58.1950874 14.6506884,57.1153267 C14.6472649,56.7441446 14.5562012,56.4455554 14.4083083,56.2113409 C13.9091697,57.4474729 13.1267979,57.2433913 13.1267979,57.2433913 C13.7900337,57.0164818 14.0785162,56.4973748 14.1814479,55.9390038 C13.1414046,54.9902753 10.7771719,55.8744008 11.3703412,57.8433091 C11.9219726,59.6763914 13.7503217,59.9959823 14.9574292,59.0986166 C17.1575647,57.4629959 17.6315981,54.2209743 17.6315981,51.5144957 C17.6315981,50.1580605 17.4859874,49.1597955 17.4670444,49.0134685 C17.3442567,48.1875542 17.150946,47.3678035 16.8695387,46.5590102 C16.2218225,44.6971648 15.1833768,43.0341506 13.9981793,41.4759165 L15.0405049,39.8418938 C16.226387,41.3154362 17.3054576,42.8729854 18.0627242,44.6083642 C19.3784691,47.6230197 19.3750456,50.8579647 18.7693237,54.031046 L18.5301389,54.9062685 C18.5301389,54.9062685 18.5661992,54.8724832 18.6314729,54.8076519 C18.6431126,54.997352 18.848063,54.6967082 19.0276799,54.390814 C19.8294512,53.511939 21.4341351,51.5405196 22.5953684,48.7559695 C23.711184,47.4748665 25.7908141,44.6976213 26.7571392,40.8867278 C26.8176201,40.6675798 26.8733082,40.4477469 26.9200953,40.2274574 C27.5972531,37.0349724 27.8012906,33.7438707 26.7137755,30.6175866 C26.1311048,28.9427019 25.2321075,27.4294389 24.1950312,26.0079441" id="Fill-5" fill="#FFFFFF" mask="url(#mask-2)"></path>
                </g>
            </g>
        </g>
    </g>
</svg>