<?xml version="1.0" encoding="UTF-8"?>
<svg width="371px" height="840px" viewBox="0 0 371 840" version="1.1" xmlns="http://www.w3.org/2000/svg" xmlns:xlink="http://www.w3.org/1999/xlink">
    <!-- Generator: Sketch 51.3 (57544) - http://www.bohemiancoding.com/sketch -->
    <title>Group</title>
    <desc>Created with Sketch.</desc>
    <defs>
        <polygon id="path-1" points="0.00134651707 0.922628559 572.178922 0.922628559 572.178922 1241.26832 0.00134651707 1241.26832"></polygon>
        <polygon id="path-3" points="0.00134651707 0.922628559 572.178922 0.922628559 572.178922 1241.26832 0.00134651707 1241.26832"></polygon>
        <polygon id="path-5" points="0.00134651707 1.25581732 572.178922 1.25581732 572.178922 1241.60151 0.00134651707 1241.60151"></polygon>
    </defs>
    <g id="Everything" stroke="none" stroke-width="1" fill="none" fill-rule="evenodd">
        <g id="A" transform="translate(-1069.000000, 0.000000)">
            <g id="Group" transform="translate(1069.000000, -402.000000)">
                <g id="Logo-2--Copy-2">
                    <g id="Group-7" transform="translate(0.000000, 0.333189)">
                        <mask id="mask-2" fill="white">
                            <use xlink:href="#path-1"></use>
                        </mask>
                        <g id="Clip-6"></g>
                        <path d="M503.804507,541.832169 L567.861408,423.878388 C554.716413,406.481608 540.663719,389.717352 526.468456,373.300271 C438.92545,272.063188 296.255206,149.187136 310.787887,1.49998478 C311.035009,-0.97779604 307.190359,4.88137089 302.951265,12.0483876 C293.764976,40.6118264 288.813029,86.3247424 313.301879,147.299076 C313.301879,147.299076 284.811552,105.343256 291.132175,34.139159 C283.851577,51.4883806 276.224059,70.2310566 274.380148,88.9784885 C260.384482,231.177426 390.560803,350.305894 476.041289,447.410172 C477.310166,448.855941 478.579043,450.311221 479.852672,451.756989 L459.493613,486.659932 C458.490867,485.490001 457.488122,484.315314 456.485377,483.150139 C368.728515,381.485032 227.797631,260.49704 242.463377,112.2059 C242.586938,110.95512 241.655478,111.858726 240.177498,113.941774 C228.396427,140.060722 215.802704,191.04784 244.972617,263.678682 C244.972617,263.678682 214.45779,218.731452 223.60606,142.92848 C216.092597,160.810353 207.970834,180.247379 206.050886,199.684404 C191.945916,342.311365 320.273574,459.732495 406.001182,557.183947 C446.581483,603.31062 487.955426,651.044758 512.767436,707.929089 C536.381854,762.069313 539.594441,819.62897 531.952665,876.827185 C526.112029,904.981624 512.672389,949.01098 482.780119,981.840387 C483.012984,981.09848 483.250601,980.361328 483.473962,979.614665 C487.019213,969.465751 490.022698,959.145627 492.218282,948.777945 C506.323252,882.26784 510.571851,813.703222 487.92216,748.567548 C467.468053,689.747599 428.356228,640.429774 388.156115,593.856055 C300.404006,492.190948 159.468369,371.202955 174.134115,222.911816 C174.338466,220.857303 171.724675,224.557329 168.407536,229.955181 C157.990389,257.876585 150.28208,305.810467 176.614841,371.388432 C176.614841,371.388432 147.207311,328.153297 154.73503,254.93749 C147.373643,272.457921 139.598801,291.419364 137.726376,310.390319 C123.621407,453.017281 251.944312,570.43841 337.67192,667.885107 C378.256974,714.021291 419.630917,761.755429 444.442926,818.63976 C466.721934,869.72675 470.808954,923.852707 464.778224,977.850256 C460.339531,1004.13566 447.764818,1055.43666 414.313039,1092.708 C418.224222,1081.7934 421.527104,1070.66003 423.893773,1059.48386 C437.99399,992.973755 442.242589,924.409137 419.59765,859.278219 C399.148296,800.448759 360.026966,751.135689 319.831605,704.56197 C232.074744,602.892108 91.1438596,481.904115 105.809606,333.617731 C105.9997,331.686869 103.709068,334.820953 100.67707,339.686154 C89.3997478,366.703952 79.0158671,416.406999 106.959674,485.989362 C106.959674,485.989362 77.3002694,442.349982 85.1986721,368.52543 C78.2174726,385.237372 71.1697403,403.162048 69.3971144,421.096235 C55.2968975,563.723196 183.61505,681.13957 269.347411,778.591023 C269.566019,778.838325 269.784627,779.090383 270.003235,779.342442 L248.959837,812.35257 C161.055653,711.286696 22.9571682,591.202309 37.4803442,444.323647 C37.6989522,442.131215 34.7097252,446.482788 31.0741789,452.475118 C22.1872878,481.128917 17.8008705,526.313937 41.8762663,586.26577 C41.8762663,586.26577 13.2433686,544.110206 19.7540856,472.587469 C19.4356783,473.210481 19.1742991,473.738377 19.0649951,474.004703 C11.4279716,492.167169 3.03057242,511.989415 1.07260498,531.80215 C-13.0323644,674.424356 115.290541,791.850241 201.018149,889.296938 C241.603202,935.428366 281.860344,983.666621 307.789155,1040.04684 C335.78999,1100.95934 338.018842,1216.45912 292.605403,1230.06076 C275.330617,1235.23509 259.058577,1227.99198 250.566131,1215.08945 C250.328513,1214.59009 250.086144,1214.08597 249.872288,1213.5771 C253.47932,1217.4198 258.11286,1220.63949 263.834687,1222.74631 C286.536654,1231.16887 305.270411,1212.39765 305.06606,1189.90264 C304.994774,1182.16968 303.098587,1175.94907 300.019066,1171.0696 C289.62568,1196.82235 273.334631,1192.57065 273.334631,1192.57065 C287.144955,1187.84337 293.151923,1177.02864 295.295232,1165.39591 C273.638781,1145.63074 224.409207,1164.05002 236.760559,1205.06894 C248.246985,1243.25815 286.318046,1249.9163 311.453215,1231.22118 C357.265852,1197.14575 367.136479,1129.60363 367.136479,1073.21866 C367.136479,1044.95959 364.104481,1024.16241 363.710036,1021.11393 C361.153273,1003.90738 357.128034,986.82924 351.268388,969.979379 C337.781224,931.190933 316.15804,896.544804 291.479096,864.081595 L313.18307,830.039454 C337.876271,860.738255 360.345373,893.187197 376.113665,929.34092 C403.510952,992.146243 403.439666,1059.54093 390.826934,1125.64679 L385.846474,1143.88059 C385.846474,1143.88059 386.597345,1143.17673 387.956516,1141.82608 C388.198886,1145.77817 392.466495,1139.51475 396.206593,1133.14196 C412.901592,1114.83206 446.315351,1073.76082 470.495299,1015.74936 C493.729529,989.059718 537.032925,931.200444 557.154368,851.80683 C558.41374,847.241245 559.573313,842.661393 560.547544,838.07203 C574.647761,771.561925 578.89636,702.997306 556.251421,637.866388 C544.118677,602.972957 525.399177,571.446644 503.804507,541.832169" id="Fill-5" fill="#FFFFFF" mask="url(#mask-2)"></path>
                    </g>
                </g>
                <g id="Group-7" transform="translate(0.000000, 0.333189)">
                    <mask id="mask-4" fill="white">
                        <use xlink:href="#path-3"></use>
                    </mask>
                    <g id="Clip-6"></g>
                    <path d="M503.804507,541.832169 L567.861408,423.878388 C554.716413,406.481608 540.663719,389.717352 526.468456,373.300271 C438.92545,272.063188 296.255206,149.187136 310.787887,1.49998478 C311.035009,-0.97779604 307.190359,4.88137089 302.951265,12.0483876 C293.764976,40.6118264 288.813029,86.3247424 313.301879,147.299076 C313.301879,147.299076 284.811552,105.343256 291.132175,34.139159 C283.851577,51.4883806 276.224059,70.2310566 274.380148,88.9784885 C260.384482,231.177426 390.560803,350.305894 476.041289,447.410172 C477.310166,448.855941 478.579043,450.311221 479.852672,451.756989 L459.493613,486.659932 C458.490867,485.490001 457.488122,484.315314 456.485377,483.150139 C368.728515,381.485032 227.797631,260.49704 242.463377,112.2059 C242.586938,110.95512 241.655478,111.858726 240.177498,113.941774 C228.396427,140.060722 215.802704,191.04784 244.972617,263.678682 C244.972617,263.678682 214.45779,218.731452 223.60606,142.92848 C216.092597,160.810353 207.970834,180.247379 206.050886,199.684404 C191.945916,342.311365 320.273574,459.732495 406.001182,557.183947 C446.581483,603.31062 487.955426,651.044758 512.767436,707.929089 C536.381854,762.069313 539.594441,819.62897 531.952665,876.827185 C526.112029,904.981624 512.672389,949.01098 482.780119,981.840387 C483.012984,981.09848 483.250601,980.361328 483.473962,979.614665 C487.019213,969.465751 490.022698,959.145627 492.218282,948.777945 C506.323252,882.26784 510.571851,813.703222 487.92216,748.567548 C467.468053,689.747599 428.356228,640.429774 388.156115,593.856055 C300.404006,492.190948 159.468369,371.202955 174.134115,222.911816 C174.338466,220.857303 171.724675,224.557329 168.407536,229.955181 C157.990389,257.876585 150.28208,305.810467 176.614841,371.388432 C176.614841,371.388432 147.207311,328.153297 154.73503,254.93749 C147.373643,272.457921 139.598801,291.419364 137.726376,310.390319 C123.621407,453.017281 251.944312,570.43841 337.67192,667.885107 C378.256974,714.021291 419.630917,761.755429 444.442926,818.63976 C466.721934,869.72675 470.808954,923.852707 464.778224,977.850256 C460.339531,1004.13566 447.764818,1055.43666 414.313039,1092.708 C418.224222,1081.7934 421.527104,1070.66003 423.893773,1059.48386 C437.99399,992.973755 442.242589,924.409137 419.59765,859.278219 C399.148296,800.448759 360.026966,751.135689 319.831605,704.56197 C232.074744,602.892108 91.1438596,481.904115 105.809606,333.617731 C105.9997,331.686869 103.709068,334.820953 100.67707,339.686154 C89.3997478,366.703952 79.0158671,416.406999 106.959674,485.989362 C106.959674,485.989362 77.3002694,442.349982 85.1986721,368.52543 C78.2174726,385.237372 71.1697403,403.162048 69.3971144,421.096235 C55.2968975,563.723196 183.61505,681.13957 269.347411,778.591023 C269.566019,778.838325 269.784627,779.090383 270.003235,779.342442 L248.959837,812.35257 C161.055653,711.286696 22.9571682,591.202309 37.4803442,444.323647 C37.6989522,442.131215 34.7097252,446.482788 31.0741789,452.475118 C22.1872878,481.128917 17.8008705,526.313937 41.8762663,586.26577 C41.8762663,586.26577 13.2433686,544.110206 19.7540856,472.587469 C19.4356783,473.210481 19.1742991,473.738377 19.0649951,474.004703 C11.4279716,492.167169 3.03057242,511.989415 1.07260498,531.80215 C-13.0323644,674.424356 115.290541,791.850241 201.018149,889.296938 C241.603202,935.428366 281.860344,983.666621 307.789155,1040.04684 C335.78999,1100.95934 338.018842,1216.45912 292.605403,1230.06076 C275.330617,1235.23509 259.058577,1227.99198 250.566131,1215.08945 C250.328513,1214.59009 250.086144,1214.08597 249.872288,1213.5771 C253.47932,1217.4198 258.11286,1220.63949 263.834687,1222.74631 C286.536654,1231.16887 305.270411,1212.39765 305.06606,1189.90264 C304.994774,1182.16968 303.098587,1175.94907 300.019066,1171.0696 C289.62568,1196.82235 273.334631,1192.57065 273.334631,1192.57065 C287.144955,1187.84337 293.151923,1177.02864 295.295232,1165.39591 C273.638781,1145.63074 224.409207,1164.05002 236.760559,1205.06894 C248.246985,1243.25815 286.318046,1249.9163 311.453215,1231.22118 C357.265852,1197.14575 367.136479,1129.60363 367.136479,1073.21866 C367.136479,1044.95959 364.104481,1024.16241 363.710036,1021.11393 C361.153273,1003.90738 357.128034,986.82924 351.268388,969.979379 C337.781224,931.190933 316.15804,896.544804 291.479096,864.081595 L313.18307,830.039454 C337.876271,860.738255 360.345373,893.187197 376.113665,929.34092 C403.510952,992.146243 403.439666,1059.54093 390.826934,1125.64679 L385.846474,1143.88059 C385.846474,1143.88059 386.597345,1143.17673 387.956516,1141.82608 C388.198886,1145.77817 392.466495,1139.51475 396.206593,1133.14196 C412.901592,1114.83206 446.315351,1073.76082 470.495299,1015.74936 C493.729529,989.059718 537.032925,931.200444 557.154368,851.80683 C558.41374,847.241245 559.573313,842.661393 560.547544,838.07203 C574.647761,771.561925 578.89636,702.997306 556.251421,637.866388 C544.118677,602.972957 525.399177,571.446644 503.804507,541.832169" id="Fill-5" fill="#FFFFFF" mask="url(#mask-4)"></path>
                </g>
                <mask id="mask-6" fill="white">
                    <use xlink:href="#path-5"></use>
                </mask>
                <g id="Clip-6"></g>
                <path d="M503.804507,542.165358 L567.861408,424.211577 C554.716413,406.814797 540.663719,390.050541 526.468456,373.63346 C438.92545,272.396376 296.255206,149.520324 310.787887,1.83317354 C311.035009,-0.644607284 307.190359,5.21455965 302.951265,12.3815763 C293.764976,40.9450151 288.813029,86.6579312 313.301879,147.632265 C313.301879,147.632265 284.811552,105.676445 291.132175,34.4723478 C283.851577,51.8215693 276.224059,70.5642454 274.380148,89.3116772 C260.384482,231.510615 390.560803,350.639083 476.041289,447.743361 C477.310166,449.189129 478.579043,450.644409 479.852672,452.090178 L459.493613,486.993121 C458.490867,485.82319 457.488122,484.648503 456.485377,483.483328 C368.728515,381.818221 227.797631,260.830229 242.463377,112.539089 C242.586938,111.288309 241.655478,112.191914 240.177498,114.274962 C228.396427,140.393911 215.802704,191.381028 244.972617,264.011871 C244.972617,264.011871 214.45779,219.064641 223.60606,143.261669 C216.092597,161.143542 207.970834,180.580567 206.050886,200.017593 C191.945916,342.644554 320.273574,460.065684 406.001182,557.517136 C446.581483,603.643808 487.955426,651.377947 512.767436,708.262278 C536.381854,762.402502 539.594441,819.962159 531.952665,877.160374 C526.112029,905.314812 512.672389,949.344169 482.780119,982.173576 C483.012984,981.431668 483.250601,980.694517 483.473962,979.947853 C487.019213,969.798939 490.022698,959.478816 492.218282,949.111134 C506.323252,882.601029 510.571851,814.036411 487.92216,748.900737 C467.468053,690.080788 428.356228,640.762962 388.156115,594.189243 C300.404006,492.524137 159.468369,371.536144 174.134115,223.245004 C174.338466,221.190491 171.724675,224.890517 168.407536,230.28837 C157.990389,258.209773 150.28208,306.143656 176.614841,371.721621 C176.614841,371.721621 147.207311,328.486486 154.73503,255.270678 C147.373643,272.791109 139.598801,291.752553 137.726376,310.723508 C123.621407,453.350469 251.944312,570.771599 337.67192,668.218296 C378.256974,714.35448 419.630917,762.088618 444.442926,818.972949 C466.721934,870.059939 470.808954,924.185895 464.778224,978.183445 C460.339531,1004.46885 447.764818,1055.76985 414.313039,1093.04119 C418.224222,1082.12659 421.527104,1070.99322 423.893773,1059.81705 C437.99399,993.306944 442.242589,924.742326 419.59765,859.611408 C399.148296,800.781948 360.026966,751.468878 319.831605,704.895159 C232.074744,603.225296 91.1438596,482.237304 105.809606,333.95092 C105.9997,332.020058 103.709068,335.154142 100.67707,340.019343 C89.3997478,367.037141 79.0158671,416.740188 106.959674,486.322551 C106.959674,486.322551 77.3002694,442.683171 85.1986721,368.858619 C78.2174726,385.570561 71.1697403,403.495237 69.3971144,421.429424 C55.2968975,564.056385 183.61505,681.472759 269.347411,778.924211 C269.566019,779.171514 269.784627,779.423572 270.003235,779.67563 L248.959837,812.685758 C161.055653,711.619885 22.9571682,591.535497 37.4803442,444.656835 C37.6989522,442.464404 34.7097252,446.815977 31.0741789,452.808306 C22.1872878,481.462106 17.8008705,526.647126 41.8762663,586.598959 C41.8762663,586.598959 13.2433686,544.443394 19.7540856,472.920658 C19.4356783,473.54367 19.1742991,474.071566 19.0649951,474.337891 C11.4279716,492.500358 3.03057242,512.322604 1.07260498,532.135339 C-13.0323644,674.757545 115.290541,792.18343 201.018149,889.630127 C241.603202,935.761555 281.860344,983.99981 307.789155,1040.38002 C335.78999,1101.29253 338.018842,1216.79231 292.605403,1230.39395 C275.330617,1235.56828 259.058577,1228.32517 250.566131,1215.42264 C250.328513,1214.92328 250.086144,1214.41916 249.872288,1213.91029 C253.47932,1217.75299 258.11286,1220.97267 263.834687,1223.0795 C286.536654,1231.50205 305.270411,1212.73084 305.06606,1190.23583 C304.994774,1182.50287 303.098587,1176.28226 300.019066,1171.40279 C289.62568,1197.15554 273.334631,1192.90384 273.334631,1192.90384 C287.144955,1188.17656 293.151923,1177.36183 295.295232,1165.7291 C273.638781,1145.96392 224.409207,1164.3832 236.760559,1205.40213 C248.246985,1243.59134 286.318046,1250.24949 311.453215,1231.55437 C357.265852,1197.47894 367.136479,1129.93682 367.136479,1073.55185 C367.136479,1045.29278 364.104481,1024.49559 363.710036,1021.44712 C361.153273,1004.24057 357.128034,987.162428 351.268388,970.312568 C337.781224,931.524122 316.15804,896.877992 291.479096,864.414783 L313.18307,830.372643 C337.876271,861.071444 360.345373,893.520385 376.113665,929.674109 C403.510952,992.479432 403.439666,1059.87412 390.826934,1125.97998 L385.846474,1144.21378 C385.846474,1144.21378 386.597345,1143.50992 387.956516,1142.15927 C388.198886,1146.11135 392.466495,1139.84794 396.206593,1133.47515 C412.901592,1115.16525 446.315351,1074.09401 470.495299,1016.08255 C493.729529,989.392907 537.032925,931.533633 557.154368,852.140019 C558.41374,847.574434 559.573313,842.994582 560.547544,838.405218 C574.647761,771.895113 578.89636,703.330495 556.251421,638.199577 C544.118677,603.306145 525.399177,571.779832 503.804507,542.165358" id="Fill-5" fill="#FFFFFF" mask="url(#mask-6)"></path>
                <path d="M503.804507,542.165358 L567.861408,424.211577 C554.716413,406.814797 540.663719,390.050541 526.468456,373.63346 C438.92545,272.396376 296.255206,149.520324 310.787887,1.83317354 C311.035009,-0.644607284 307.190359,5.21455965 302.951265,12.3815763 C293.764976,40.9450151 288.813029,86.6579312 313.301879,147.632265 C313.301879,147.632265 284.811552,105.676445 291.132175,34.4723478 C283.851577,51.8215693 276.224059,70.5642454 274.380148,89.3116772 C260.384482,231.510615 390.560803,350.639083 476.041289,447.743361 C477.310166,449.189129 478.579043,450.644409 479.852672,452.090178 L459.493613,486.993121 C458.490867,485.82319 457.488122,484.648503 456.485377,483.483328 C368.728515,381.818221 227.797631,260.830229 242.463377,112.539089 C242.586938,111.288309 241.655478,112.191914 240.177498,114.274962 C228.396427,140.393911 215.802704,191.381028 244.972617,264.011871 C244.972617,264.011871 214.45779,219.064641 223.60606,143.261669 C216.092597,161.143542 207.970834,180.580567 206.050886,200.017593 C191.945916,342.644554 320.273574,460.065684 406.001182,557.517136 C446.581483,603.643808 487.955426,651.377947 512.767436,708.262278 C536.381854,762.402502 539.594441,819.962159 531.952665,877.160374 C526.112029,905.314812 512.672389,949.344169 482.780119,982.173576 C483.012984,981.431668 483.250601,980.694517 483.473962,979.947853 C487.019213,969.798939 490.022698,959.478816 492.218282,949.111134 C506.323252,882.601029 510.571851,814.036411 487.92216,748.900737 C467.468053,690.080788 428.356228,640.762962 388.156115,594.189243 C300.404006,492.524137 159.468369,371.536144 174.134115,223.245004 C174.338466,221.190491 171.724675,224.890517 168.407536,230.28837 C157.990389,258.209773 150.28208,306.143656 176.614841,371.721621 C176.614841,371.721621 147.207311,328.486486 154.73503,255.270678 C147.373643,272.791109 139.598801,291.752553 137.726376,310.723508 C123.621407,453.350469 251.944312,570.771599 337.67192,668.218296 C378.256974,714.35448 419.630917,762.088618 444.442926,818.972949 C466.721934,870.059939 470.808954,924.185895 464.778224,978.183445 C460.339531,1004.46885 447.764818,1055.76985 414.313039,1093.04119 C418.224222,1082.12659 421.527104,1070.99322 423.893773,1059.81705 C437.99399,993.306944 442.242589,924.742326 419.59765,859.611408 C399.148296,800.781948 360.026966,751.468878 319.831605,704.895159 C232.074744,603.225296 91.1438596,482.237304 105.809606,333.95092 C105.9997,332.020058 103.709068,335.154142 100.67707,340.019343 C89.3997478,367.037141 79.0158671,416.740188 106.959674,486.322551 C106.959674,486.322551 77.3002694,442.683171 85.1986721,368.858619 C78.2174726,385.570561 71.1697403,403.495237 69.3971144,421.429424 C55.2968975,564.056385 183.61505,681.472759 269.347411,778.924211 C269.566019,779.171514 269.784627,779.423572 270.003235,779.67563 L248.959837,812.685758 C161.055653,711.619885 22.9571682,591.535497 37.4803442,444.656835 C37.6989522,442.464404 34.7097252,446.815977 31.0741789,452.808306 C22.1872878,481.462106 17.8008705,526.647126 41.8762663,586.598959 C41.8762663,586.598959 13.2433686,544.443394 19.7540856,472.920658 C19.4356783,473.54367 19.1742991,474.071566 19.0649951,474.337891 C11.4279716,492.500358 3.03057242,512.322604 1.07260498,532.135339 C-13.0323644,674.757545 115.290541,792.18343 201.018149,889.630127 C241.603202,935.761555 281.860344,983.99981 307.789155,1040.38002 C335.78999,1101.29253 338.018842,1216.79231 292.605403,1230.39395 C275.330617,1235.56828 259.058577,1228.32517 250.566131,1215.42264 C250.328513,1214.92328 250.086144,1214.41916 249.872288,1213.91029 C253.47932,1217.75299 258.11286,1220.97267 263.834687,1223.0795 C286.536654,1231.50205 305.270411,1212.73084 305.06606,1190.23583 C304.994774,1182.50287 303.098587,1176.28226 300.019066,1171.40279 C289.62568,1197.15554 273.334631,1192.90384 273.334631,1192.90384 C287.144955,1188.17656 293.151923,1177.36183 295.295232,1165.7291 C273.638781,1145.96392 224.409207,1164.3832 236.760559,1205.40213 C248.246985,1243.59134 286.318046,1250.24949 311.453215,1231.55437 C357.265852,1197.47894 367.136479,1129.93682 367.136479,1073.55185 C367.136479,1045.29278 364.104481,1024.49559 363.710036,1021.44712 C361.153273,1004.24057 357.128034,987.162428 351.268388,970.312568 C337.781224,931.524122 316.15804,896.877992 291.479096,864.414783 L313.18307,830.372643 C337.876271,861.071444 360.345373,893.520385 376.113665,929.674109 C403.510952,992.479432 403.439666,1059.87412 390.826934,1125.97998 L385.846474,1144.21378 C385.846474,1144.21378 386.597345,1143.50992 387.956516,1142.15927 C388.198886,1146.11135 392.466495,1139.84794 396.206593,1133.47515 C412.901592,1115.16525 446.315351,1074.09401 470.495299,1016.08255 C493.729529,989.392907 537.032925,931.533633 557.154368,852.140019 C558.41374,847.574434 559.573313,842.994582 560.547544,838.405218 C574.647761,771.895113 578.89636,703.330495 556.251421,638.199577 C544.118677,603.306145 525.399177,571.779832 503.804507,542.165358" id="Path" fill="#FFFFFF" fill-rule="nonzero" mask="url(#mask-6)"></path>
            </g>
        </g>
    </g>
</svg>